
<global>
ampeg_attack=0.002
ampeg_release=3.5
</global>

<group>
group_label=Group

<region>
hikey=F4
hivel=127
lokey=E4
lovel=1
offset=5401
pitch_keycenter=E4
release_start=27639
release_xfade=9600
sample=om28_Fall_MF_E4.opus
</region>

<region>
hikey=F2
hivel=127
lokey=E2
lovel=1
offset=1920
pitch_keycenter=E2
release_start=87532
release_xfade=9600
sample=om28_Fall_MF_E2.opus
</region>

<region>
hikey=A3
hivel=127
lokey=G#3
lovel=1
offset=2118
pitch_keycenter=G#3
release_start=31302
release_xfade=9600
sample=om28_Fall_MF_G#3.opus
</region>

<region>
hikey=A4
hivel=127
lokey=G#4
lovel=1
offset=9524
pitch_keycenter=G#4
release_start=34759
release_xfade=9600
sample=om28_Fall_MF_G#4.opus
</region>

<region>
hikey=D#4
hivel=127
lokey=D4
lovel=1
offset=1311
pitch_keycenter=D4
release_start=22647
release_xfade=9600
sample=om28_Fall_MF_D4.opus
</region>

<region>
hikey=B4
hivel=127
lokey=A#4
lovel=1
offset=8554
pitch_keycenter=A#4
release_start=27519
release_xfade=9600
sample=om28_Fall_MF_A#4.opus
</region>

<region>
hikey=D#3
hivel=127
lokey=D3
lovel=1
offset=6523
pitch_keycenter=D3
release_start=31302
release_xfade=9600
sample=om28_Fall_MF_D3.opus
</region>

<region>
end=97884
hikey=G5
hivel=127
lokey=F#5
lovel=1
offset=9974
pitch_keycenter=F#5
release_start=27299
release_xfade=9600
sample=om28_Fall_MF_F#5.opus
</region>

<region>
end=151107
hikey=C#4
hivel=127
lokey=C4
lovel=1
offset=773
release_start=22090
release_xfade=9600
sample=om28_Fall_MF_C4.opus
</region>

<region>
hikey=D#5
hivel=127
lokey=D5
lovel=1
offset=2616
pitch_keycenter=D5
release_start=18362
release_xfade=9600
sample=om28_Fall_MF_D5.opus
</region>

<region>
hikey=B3
hivel=127
lokey=A#3
lovel=1
offset=2992
pitch_keycenter=A#3
release_start=21277
release_xfade=9600
sample=om28_Fall_MF_A#3.opus
</region>

<region>
hikey=D#2
hivel=127
lokey=C2
lovel=1
offset=1930
pitch_keycenter=D2
release_start=36454
release_xfade=9600
sample=om28_Fall_MF_D2.opus
</region>

<region>
hikey=F3
hivel=127
lokey=E3
lovel=1
offset=1018
pitch_keycenter=E3
release_start=18161
release_xfade=9600
sample=om28_Fall_MF_E3.opus
</region>

<region>
hikey=G2
hivel=127
lokey=F#2
lovel=1
offset=8899
pitch_keycenter=F#2
release_start=79476
release_xfade=9600
sample=om28_Fall_MF_F#2.opus
</region>

<region>
hikey=C#3
hivel=127
lokey=C3
lovel=1
offset=967
pitch_keycenter=C3
release_start=39337
release_xfade=9600
sample=om28_Fall_MF_C3.opus
</region>

<region>
hikey=G3
hivel=127
lokey=F#3
lovel=1
offset=4476
pitch_keycenter=F#3
release_xfade=9600
sample=om28_Fall_MF_F#3.opus
</region>

<region>
hikey=C6
hivel=127
lokey=G#5
lovel=1
offset=6873
pitch_keycenter=G#5
release_start=25175
release_xfade=9600
sample=om28_Fall_MF_G#5.opus
</region>

<region>
hikey=G4
hivel=127
lokey=F#4
lovel=1
offset=6637
pitch_keycenter=F#4
release_start=29677
release_xfade=9600
sample=om28_Fall_MF_F#4.opus
</region>

<region>
hikey=A2
hivel=127
lokey=G#2
lovel=1
offset=6144
pitch_keycenter=G#2
release_start=63033
release_xfade=9600
sample=om28_Fall_MF_G#2.opus
</region>

<region>
hikey=C#5
hivel=127
lokey=C5
lovel=1
offset=5696
pitch_keycenter=C5
release_start=25535
release_xfade=9600
sample=om28_Fall_MF_C5.opus
</region>

<region>
hikey=B2
hivel=127
lokey=A#2
lovel=1
offset=969
pitch_keycenter=A#2
release_start=54882
release_xfade=9600
sample=om28_Fall_MF_A#2.opus
</region>

<region>
hikey=F5
hivel=127
lokey=E5
lovel=1
offset=7346
pitch_keycenter=E5
release_start=25579
release_xfade=9600
sample=om28_Fall_MF_E5.opus
</region>
</group>